<?xml version="1.0" encoding="UTF-8"?>
<svg id="Capa_2" data-name="Capa 2" xmlns="http://www.w3.org/2000/svg" viewBox="0 0 71.51 23.45">
  <defs>
    <style>
      .cls-1 {
        fill: #615c51;
      }

      .cls-1, .cls-2, .cls-3, .cls-4 {
        stroke-width: 0px;
      }

      .cls-2 {
        fill: #000;
      }

      .cls-3 {
        fill: #a49e94;
      }

      .cls-4 {
        fill: #d4cfc4;
      }
    </style>
  </defs>
  <g id="landingPage">
    <g id="navBar">
      <g id="logoOrkapi">
        <path class="cls-1" d="M.15,9.22s.46,3.64,1.68,5.28,2.9,4.01,7.32,2.97c0,0-3.05,1.19-6.1-.15-3.05-1.34-3.05-3.42-3.05-5.05s0-1.56.15-3.05Z"/>
        <path class="cls-4" d="M4.73,5.21s2.28.28,3.97,2.08c1.53,1.64,2.75,3.57,2.75,3.57,0,0,.76,1.49,1.07,3.27,0,0,.31-.52.15-4.39-.15-3.87-4.43-4.53-4.43-4.53,0,0-1.83-.3-3.51,0Z"/>
        <path class="cls-3" d="M12.51,13.9c-1.68-7.73-7.17-8.78-7.78-8.72-.92.1-1.83.54-1.83.54C.31,6.77.15,9.22.15,9.22c0,0,0,5.2,4.16,7.78,0,0,3.17,2.03,6.52-.42,0,0,.61-.3,1.22-1.34.61-1.04.46-1.34.46-1.34ZM6.34,14.9c-2.66-.05-2.53-1.44-2.53-1.44v-3.72s.04-.56.15-.74c.46-.74,1.22-.89,2.14-.89s2.44,0,2.75,1.35c.31,1.35,0,3.71,0,3.71,0,0,.15,1.78-2.51,1.74Z"/>
        <path class="cls-2" d="M24.57,5.73c-.31-.59-2.59-1.34-5.49-.89s-3.66,1.93-4.12,2.82c-.76,1.49-.46,8.33-.46,8.33,0,1.04,1.23,1.58,1.98,1.49,1.22-.15,1.68-.59,1.68-1.64v-5.35c0-2.38.94-3.09,3.81-2.53,2.29.45,2.53-.16,2.59-.3.61-1.19,0-1.93,0-1.93Z"/>
        <path class="cls-2" d="M26.09,1.56v14.64s-.09,1.29,1.86,1.42,1.8-1.94,1.8-1.94c0,0,0-2.45,0-3.27s3.97,3.27,3.97,3.27l1.68,1.49s1.53,1.04,2.59,0c.92-.89,1.17-1.58-.92-3.27-.92-.74-2.9-2.68-3.2-2.97l3.81-3.12s.46-.3.61-.74.15-1.34-.76-1.78-1.68-.3-1.68-.3c0,0-.61.15-1.37.89l-3.51,3.12-1.22.74V1.41S29.95.09,27.94,0c-1.69-.07-1.85,1.56-1.85,1.56Z"/>
        <path class="cls-2" d="M51.96,10.86c0-.74-.25-2.7-.46-3.12-.15-.3-.45-1.64-3.66-2.53-3.2-.89-7.32.59-7.32.59-.61.45-.46,1.04-.46,1.04,0,1.64,1.83,1.49,1.83,1.49,3.36-.89,4.92-.59,4.92-.59,1.57.59,1.19,1.78,1.19,1.78h.14c-1.68,0-3.97,0-5.19.15-1.22.15-3.36.3-3.66,3.27-.32,3.12,2.14,4.01,2.14,4.01,0,0,2.43,1.07,4.88.76s3.51-.61,4.74-1.95c1.22-1.34.92-4.16.92-4.91ZM48.15,13.63c-.31,1.38-3.66,2.28-4.73.94-1.48-1.86.8-2.68.8-2.68h3.93s.21.77,0,1.74Z"/>
        <path class="cls-2" d="M66.08,7.06s-.31-1.93-2.9-2.82-6.1-.89-8.55,1.34c0,0-1.07,1.18-1.07,2.52v13.16h0v.87c0,.99,2.9,2.47,3.66-.2v-5.86s2.14.36,3.2.36c.61,0,2.14.3,4.27-1.19,0,0,1.53-1.04,1.53-4.31s-.15-3.87-.15-3.87ZM62.63,10.63c-.06,2.38-.9,2.53-.9,2.53-.68.74-4.5,0-4.5,0v-3.92c0-1.88.92-2.32,1.83-2.47.92-.15,2.44-.15,2.9.45s.74,1.04.67,3.42Z"/>
        <g>
          <path class="cls-2" d="M71.49,6.02s.31-1.34-1.68-1.48c-1.99-.15-1.98,1.35-1.98,1.35v9.8c.31,1.78,2.29,1.49,2.29,1.49,1.37-.15,1.39-1.49,1.39-1.49l-.02-9.66Z"/>
          <path class="cls-2" d="M69.66,3.5s1.83-.15,1.68-1.64c-.17-1.63-1.67-1.49-1.67-1.49-1.84-.14-2.46,2.85,0,3.13Z"/>
        </g>
      </g>
    </g>
  </g>
</svg>